# xmcd
#
# Track frame offsets:
#	150
#	17362
#	29872
#	45309
#	57780
#	71130
#	90068
#	104543
#	119537
#	139251
#	151506
#	163618
#	173426
#	185867
#	202099
#	215189
#	231780
#	247293
#	264779
#	276354
#	287336
#
# Disc length: 4013 seconds
#
# Revision: 0
# Processed by: cddbd v1.4PL0 Copyright (c) Steve Scherf et al.
# Submitted via: dBpowerAMP V4.0
#
DISCID=2e0fab15
DTITLE=Various Artist - Country Legends
DYEAR=1900
DGENRE=Country
TTITLE0=Willie Nelson - Always on my Mind
TTITLE1=Roy Orbison - Blue Bayou
TTITLE2=Bobbie Gentry and Glen Campbell - All I Have to do is Dream
TTITLE3=LeAnn Rimes - How do I Live
TTITLE4=Eva Cassidy - Tennessee Waltz
TTITLE5=Nanci Griffith - From a Distance
TTITLE6=Alison Krauss and Union Station - When You Say Nothing at All
TTITLE7=Lonestar - Amazed
TTITLE8=Soggy Bottom Boys Feat. Dan Tyminski - I am a Man of Constant Sorrow
TTITLE9=Johnnie Allan - The Promised Land
TTITLE10=The Mavericks - Dance The Night Away
TTITLE11=Billy Swan - I Can Help
TTITLE12=Bellamy Brothers - If I Said You Have a Beautiful Body
TTITLE13=Glen Campbell - Galveston
TTITLE14=Bobbie Gentry - Ode to Billy Joe
TTITLE15=Joe South - Games People Play
TTITLE16=Juice Newton - Angel of The Morning
TTITLE17=Tim McGraw - Please Remember Me
TTITLE18=The Judds - Love Can Build a Bridge
TTITLE19=Don McClean - Crying
TTITLE20=Dr Hook - A Little Bit More
EXTD=
EXTT0=
EXTT1=
EXTT2=
EXTT3=
EXTT4=
EXTT5=
EXTT6=
EXTT7=
EXTT8=
EXTT9=
EXTT10=
EXTT11=
EXTT12=
EXTT13=
EXTT14=
EXTT15=
EXTT16=
EXTT17=
EXTT18=
EXTT19=
EXTT20=
PLAYORDER=
